<?xml version="1.0" encoding="UTF-8" standalone="no"?>
<!DOCTYPE svg PUBLIC "-//W3C//DTD SVG 1.1//EN"
 "http://www.w3.org/Graphics/SVG/1.1/DTD/svg11.dtd">
<!-- Generated by graphviz version 15.0.0 (20260523.1842)
 -->
<!-- Title: architecture Pages: 1 -->
<svg width="1959pt" height="1740pt"
 viewBox="0.00 0.00 1959.00 1740.00" xmlns="http://www.w3.org/2000/svg" xmlns:xlink="http://www.w3.org/1999/xlink">
<g id="graph0" class="graph" transform="scale(1 1) rotate(0) translate(14.4 1725.65)">
<title>architecture</title>
<polygon fill="white" stroke="none" points="-14.4,14.4 -14.4,-1725.65 1944.6,-1725.65 1944.6,14.4 -14.4,14.4"/>
<!-- tests/test_diff_soak.py -->
<g id="node1" class="node">
<title>tests/test_diff_soak.py</title>
<path fill="#f8fafc" stroke="#cbd5e1" stroke-width="1.1" stroke-dasharray="5,2" d="M367.35,-376C367.35,-376 238.8,-376 238.8,-376 232.8,-376 226.8,-370 226.8,-364 226.8,-364 226.8,-352 226.8,-352 226.8,-346 232.8,-340 238.8,-340 238.8,-340 367.35,-340 367.35,-340 373.35,-340 379.35,-346 379.35,-352 379.35,-352 379.35,-364 379.35,-364 379.35,-370 373.35,-376 367.35,-376"/>
<text xml:space="preserve" text-anchor="middle" x="303.08" y="-354.3" font-family="Helvetica,sans-Serif" font-size="11.00" fill="#334155">tests/test_diff_soak.py</text>
</g>
<!-- src/terse/transport.py -->
<g id="node2" class="node">
<title>src/terse/transport.py</title>
<path fill="#f8fafc" stroke="#cbd5e1" stroke-width="1.1" d="M607.28,-368C607.28,-368 481.73,-368 481.73,-368 475.73,-368 469.73,-362 469.73,-356 469.73,-356 469.73,-344 469.73,-344 469.73,-338 475.73,-332 481.73,-332 481.73,-332 607.28,-332 607.28,-332 613.28,-332 619.28,-338 619.28,-344 619.28,-344 619.28,-356 619.28,-356 619.28,-362 613.28,-368 607.28,-368"/>
<text xml:space="preserve" text-anchor="middle" x="544.5" y="-346.3" font-family="Helvetica,sans-Serif" font-size="11.00" fill="#334155">src/terse/transport.py</text>
</g>
<!-- tests/test_diff_soak.py&#45;&gt;src/terse/transport.py -->
<g id="edge1" class="edge">
<title>tests/test_diff_soak.py&#45;&gt;src/terse/transport.py</title>
<path fill="none" stroke="#94a3b8" d="M379.83,-355.47C406,-354.59 435.43,-353.61 462.04,-352.72"/>
<polygon fill="#94a3b8" stroke="#94a3b8" points="462.03,-354.82 467.95,-352.52 461.89,-350.63 462.03,-354.82"/>
<text xml:space="preserve" text-anchor="middle" x="416.85" y="-358.43" font-family="Times,serif" font-size="14.00">15</text>
</g>
<!-- src/terse/policy.py -->
<g id="node3" class="node">
<title>src/terse/policy.py</title>
<path fill="#f8fafc" stroke="#cbd5e1" stroke-width="1.1" d="M1430.85,-570C1430.85,-570 1325.55,-570 1325.55,-570 1319.55,-570 1313.55,-564 1313.55,-558 1313.55,-558 1313.55,-546 1313.55,-546 1313.55,-540 1319.55,-534 1325.55,-534 1325.55,-534 1430.85,-534 1430.85,-534 1436.85,-534 1442.85,-540 1442.85,-546 1442.85,-546 1442.85,-558 1442.85,-558 1442.85,-564 1436.85,-570 1430.85,-570"/>
<text xml:space="preserve" text-anchor="middle" x="1378.2" y="-548.3" font-family="Helvetica,sans-Serif" font-size="11.00" fill="#334155">src/terse/policy.py</text>
</g>
<!-- tests/test_diff_soak.py&#45;&gt;src/terse/policy.py -->
<g id="edge2" class="edge">
<title>tests/test_diff_soak.py&#45;&gt;src/terse/policy.py</title>
<path fill="none" stroke="#94a3b8" d="M360.68,-376.43C372.19,-380.18 380.85,-383 380.85,-383 380.85,-383 407.85,-436 407.85,-436 407.85,-436 452.85,-478 452.85,-478 452.85,-478 636.15,-540 636.15,-540 636.15,-540 663.15,-581 663.15,-581 663.15,-581 1023.75,-585 1023.75,-585 1023.75,-585 1032.75,-585 1032.75,-585 1032.75,-585 1216.05,-583 1216.05,-583 1216.05,-583 1262.76,-574.01 1305.89,-565.72"/>
<polygon fill="#94a3b8" stroke="#94a3b8" points="1306.06,-567.82 1311.56,-564.63 1305.27,-563.7 1306.06,-567.82"/>
<text xml:space="preserve" text-anchor="middle" x="923.48" y="-588.64" font-family="Times,serif" font-size="14.00">15</text>
</g>
<!-- src/terse/multiproxy.py -->
<g id="node4" class="node">
<title>src/terse/multiproxy.py</title>
<path fill="#f8fafc" stroke="#cbd5e1" stroke-width="1.1" d="M1204.05,-570C1204.05,-570 1071.75,-570 1071.75,-570 1065.75,-570 1059.75,-564 1059.75,-558 1059.75,-558 1059.75,-546 1059.75,-546 1059.75,-540 1065.75,-534 1071.75,-534 1071.75,-534 1204.05,-534 1204.05,-534 1210.05,-534 1216.05,-540 1216.05,-546 1216.05,-546 1216.05,-558 1216.05,-558 1216.05,-564 1210.05,-570 1204.05,-570"/>
<text xml:space="preserve" text-anchor="middle" x="1137.9" y="-548.3" font-family="Helvetica,sans-Serif" font-size="11.00" fill="#334155">src/terse/multiproxy.py</text>
</g>
<!-- tests/test_diff_soak.py&#45;&gt;src/terse/multiproxy.py -->
<g id="edge3" class="edge">
<title>tests/test_diff_soak.py&#45;&gt;src/terse/multiproxy.py</title>
<path fill="none" stroke="#94a3b8" d="M360.68,-376.43C372.19,-380.18 380.85,-383 380.85,-383 380.85,-383 407.85,-414 407.85,-414 407.85,-414 636.15,-489 636.15,-489 636.15,-489 663.15,-552 663.15,-552 663.15,-552 1023.75,-566 1023.75,-566 1023.75,-566 1032.75,-566 1032.75,-566 1032.75,-566 1040.68,-564.93 1052.16,-563.39"/>
<polygon fill="#94a3b8" stroke="#94a3b8" points="1052.13,-565.51 1057.8,-562.63 1051.57,-561.35 1052.13,-565.51"/>
<text xml:space="preserve" text-anchor="middle" x="743.18" y="-562.14" font-family="Times,serif" font-size="14.00">10</text>
</g>
<!-- src/terse/proxy.py -->
<g id="node5" class="node">
<title>src/terse/proxy.py</title>
<path fill="#f8fafc" stroke="#cbd5e1" stroke-width="1.1" d="M975.75,-285C975.75,-285 871.2,-285 871.2,-285 865.2,-285 859.2,-279 859.2,-273 859.2,-273 859.2,-261 859.2,-261 859.2,-255 865.2,-249 871.2,-249 871.2,-249 975.75,-249 975.75,-249 981.75,-249 987.75,-255 987.75,-261 987.75,-261 987.75,-273 987.75,-273 987.75,-279 981.75,-285 975.75,-285"/>
<text xml:space="preserve" text-anchor="middle" x="923.48" y="-263.3" font-family="Helvetica,sans-Serif" font-size="11.00" fill="#334155">src/terse/proxy.py</text>
</g>
<!-- tests/test_diff_soak.py&#45;&gt;src/terse/proxy.py -->
<g id="edge4" class="edge">
<title>tests/test_diff_soak.py&#45;&gt;src/terse/proxy.py</title>
<path fill="none" stroke="#94a3b8" d="M327.11,-339.7C349.72,-321.73 380.85,-297 380.85,-297 380.85,-297 452.85,-193.75 452.85,-193.75 452.85,-193.75 636.15,-193.75 636.15,-193.75 636.15,-193.75 823.2,-213 823.2,-213 823.2,-213 854.59,-230.08 882.07,-245.02"/>
<polygon fill="#94a3b8" stroke="#94a3b8" points="880.98,-246.82 887.26,-247.84 882.99,-243.13 880.98,-246.82"/>
<text xml:space="preserve" text-anchor="middle" x="544.5" y="-197.7" font-family="Times,serif" font-size="14.00">5</text>
</g>
<!-- src/terse/transport.py&#45;&gt;tests/test_diff_soak.py -->
<g id="edge7" class="edge">
<title>src/terse/transport.py&#45;&gt;tests/test_diff_soak.py</title>
<path fill="none" stroke="#94a3b8" d="M469.32,-337.86C445.83,-334.02 425.85,-330.75 425.85,-330.75 425.85,-330.75 407.85,-330.75 407.85,-330.75 407.85,-330.75 396.65,-333.69 381.6,-337.64"/>
<polygon fill="#94a3b8" stroke="#94a3b8" points="381.18,-335.58 375.91,-339.14 382.24,-339.64 381.18,-335.58"/>
<text xml:space="preserve" text-anchor="middle" x="416.85" y="-334.7" font-family="Times,serif" font-size="14.00">12</text>
</g>
<!-- src/terse/transport.py&#45;&gt;src/terse/policy.py -->
<g id="edge5" class="edge">
<title>src/terse/transport.py&#45;&gt;src/terse/policy.py</title>
<path fill="none" stroke="#94a3b8" d="M619.82,-352.44C794.41,-358.17 1216.05,-372 1216.05,-372 1216.05,-372 1312.33,-479.54 1356.05,-528.37"/>
<polygon fill="#94a3b8" stroke="#94a3b8" points="1354.28,-529.55 1359.85,-532.62 1357.41,-526.75 1354.28,-529.55"/>
<text xml:space="preserve" text-anchor="middle" x="1028.25" y="-369.87" font-family="Times,serif" font-size="14.00">9</text>
</g>
<!-- src/terse/transport.py&#45;&gt;src/terse/multiproxy.py -->
<g id="edge6" class="edge">
<title>src/terse/transport.py&#45;&gt;src/terse/multiproxy.py</title>
<path fill="none" stroke="#94a3b8" d="M590.83,-368.5C613.49,-377.75 636.15,-387 636.15,-387 636.15,-387 663.15,-425 663.15,-425 663.15,-425 996.75,-495.75 996.75,-495.75 996.75,-495.75 1044.46,-514.9 1084.2,-530.85"/>
<polygon fill="#94a3b8" stroke="#94a3b8" points="1083.25,-532.73 1089.61,-533.02 1084.82,-528.83 1083.25,-532.73"/>
<text xml:space="preserve" text-anchor="middle" x="923.48" y="-499.7" font-family="Times,serif" font-size="14.00">6</text>
</g>
<!-- src/terse/transport.py&#45;&gt;src/terse/proxy.py -->
<g id="edge8" class="edge">
<title>src/terse/transport.py&#45;&gt;src/terse/proxy.py</title>
<path fill="none" stroke="#94a3b8" d="M603.98,-331.48C633.51,-322.14 663.15,-312.75 663.15,-312.75 663.15,-312.75 823.2,-285 823.2,-285 823.2,-285 835.62,-282.75 851.68,-279.84"/>
<polygon fill="#94a3b8" stroke="#94a3b8" points="851.74,-281.96 857.27,-278.82 850.99,-277.83 851.74,-281.96"/>
<text xml:space="preserve" text-anchor="middle" x="743.18" y="-316.7" font-family="Times,serif" font-size="14.00">3</text>
</g>
<!-- src/terse/transforms.py -->
<g id="node8" class="node">
<title>src/terse/transforms.py</title>
<path fill="#f8fafc" stroke="#cbd5e1" stroke-width="1.1" d="M1698.53,-807C1698.53,-807 1563.98,-807 1563.98,-807 1557.98,-807 1551.98,-801 1551.98,-795 1551.98,-795 1551.98,-783 1551.98,-783 1551.98,-777 1557.98,-771 1563.98,-771 1563.98,-771 1698.53,-771 1698.53,-771 1704.53,-771 1710.53,-777 1710.53,-783 1710.53,-783 1710.53,-795 1710.53,-795 1710.53,-801 1704.53,-807 1698.53,-807"/>
<text xml:space="preserve" text-anchor="middle" x="1631.25" y="-785.3" font-family="Helvetica,sans-Serif" font-size="11.00" fill="#334155">src/terse/transforms.py</text>
</g>
<!-- src/terse/policy.py&#45;&gt;src/terse/transforms.py -->
<g id="edge66" class="edge">
<title>src/terse/policy.py&#45;&gt;src/terse/transforms.py</title>
<path fill="none" stroke="#94a3b8" d="M1398.48,-570.2C1443.57,-612.77 1555.83,-718.75 1605.7,-765.83"/>
<polygon fill="#94a3b8" stroke="#94a3b8" points="1604,-767.1 1609.8,-769.7 1606.88,-764.05 1604,-767.1"/>
<text xml:space="preserve" text-anchor="middle" x="1508.85" y="-681.56" font-family="Times,serif" font-size="14.00">3</text>
</g>
<!-- src/terse/multiproxy.py&#45;&gt;tests/test_diff_soak.py -->
<g id="edge11" class="edge">
<title>src/terse/multiproxy.py&#45;&gt;tests/test_diff_soak.py</title>
<path fill="none" stroke="#94a3b8" d="M1059.2,-543.96C924.8,-530.06 663.15,-503 663.15,-503 663.15,-503 636.15,-423 636.15,-423 636.15,-423 485.49,-393.51 387.13,-374.26"/>
<polygon fill="#94a3b8" stroke="#94a3b8" points="387.62,-372.21 381.33,-373.12 386.81,-376.34 387.62,-372.21"/>
<text xml:space="preserve" text-anchor="middle" x="743.18" y="-523.12" font-family="Times,serif" font-size="14.00">8</text>
</g>
<!-- src/terse/multiproxy.py&#45;&gt;src/terse/transport.py -->
<g id="edge9" class="edge">
<title>src/terse/multiproxy.py&#45;&gt;src/terse/transport.py</title>
<path fill="none" stroke="#94a3b8" d="M1113.44,-533.55C1073.54,-502.16 996.75,-441.75 996.75,-441.75 996.75,-441.75 757.01,-393 627.01,-366.57"/>
<polygon fill="#94a3b8" stroke="#94a3b8" points="627.54,-364.54 621.25,-365.4 626.71,-368.65 627.54,-364.54"/>
<text xml:space="preserve" text-anchor="middle" x="923.48" y="-445.7" font-family="Times,serif" font-size="14.00">13</text>
</g>
<!-- src/terse/multiproxy.py&#45;&gt;src/terse/policy.py -->
<g id="edge10" class="edge">
<title>src/terse/multiproxy.py&#45;&gt;src/terse/policy.py</title>
<path fill="none" stroke="#94a3b8" d="M1216.6,-552C1245.27,-552 1277.61,-552 1305.71,-552"/>
<polygon fill="#94a3b8" stroke="#94a3b8" points="1305.62,-554.1 1311.62,-552 1305.62,-549.9 1305.62,-554.1"/>
<text xml:space="preserve" text-anchor="middle" x="1247.55" y="-555.95" font-family="Times,serif" font-size="14.00">6</text>
</g>
<!-- src/terse/multiproxy.py&#45;&gt;src/terse/proxy.py -->
<g id="edge12" class="edge">
<title>src/terse/multiproxy.py&#45;&gt;src/terse/proxy.py</title>
<path fill="none" stroke="#94a3b8" d="M1120.45,-533.68C1089.07,-498.73 1023.75,-426 1023.75,-426 1023.75,-426 996.75,-379 996.75,-379 996.75,-379 961.76,-324.78 940.47,-291.79"/>
<polygon fill="#94a3b8" stroke="#94a3b8" points="942.25,-290.67 937.23,-286.77 938.72,-292.95 942.25,-290.67"/>
<text xml:space="preserve" text-anchor="middle" x="1028.25" y="-438.59" font-family="Times,serif" font-size="14.00">8</text>
</g>
<!-- src/terse/stats.py -->
<g id="node13" class="node">
<title>src/terse/stats.py</title>
<path fill="#f8fafc" stroke="#cbd5e1" stroke-width="1.1" d="M1429.35,-767C1429.35,-767 1327.05,-767 1327.05,-767 1321.05,-767 1315.05,-761 1315.05,-755 1315.05,-755 1315.05,-743 1315.05,-743 1315.05,-737 1321.05,-731 1327.05,-731 1327.05,-731 1429.35,-731 1429.35,-731 1435.35,-731 1441.35,-737 1441.35,-743 1441.35,-743 1441.35,-755 1441.35,-755 1441.35,-761 1435.35,-767 1429.35,-767"/>
<text xml:space="preserve" text-anchor="middle" x="1378.2" y="-745.3" font-family="Helvetica,sans-Serif" font-size="11.00" fill="#334155">src/terse/stats.py</text>
</g>
<!-- src/terse/multiproxy.py&#45;&gt;src/terse/stats.py -->
<g id="edge25" class="edge">
<title>src/terse/multiproxy.py&#45;&gt;src/terse/stats.py</title>
<path fill="none" stroke="#94a3b8" d="M1161.32,-570.53C1205.07,-606.71 1301.73,-686.61 1349.45,-726.06"/>
<polygon fill="#94a3b8" stroke="#94a3b8" points="1347.89,-727.49 1353.85,-729.7 1350.56,-724.25 1347.89,-727.49"/>
<text xml:space="preserve" text-anchor="middle" x="1247.55" y="-648.54" font-family="Times,serif" font-size="14.00">1</text>
</g>
<!-- src/terse/proxy.py&#45;&gt;tests/test_diff_soak.py -->
<g id="edge21" class="edge">
<title>src/terse/proxy.py&#45;&gt;tests/test_diff_soak.py</title>
<path fill="none" stroke="#94a3b8" d="M898.44,-248.6C869.06,-226.11 823.2,-191 823.2,-191 823.2,-191 636.15,-170.75 636.15,-170.75 636.15,-170.75 452.85,-170.75 452.85,-170.75 452.85,-170.75 407.85,-227 407.85,-227 407.85,-227 380.85,-297 380.85,-297 380.85,-297 354.62,-317.84 332.83,-335.16"/>
<polygon fill="#94a3b8" stroke="#94a3b8" points="331.69,-333.38 328.3,-338.76 334.3,-336.67 331.69,-333.38"/>
<text xml:space="preserve" text-anchor="middle" x="544.5" y="-174.7" font-family="Times,serif" font-size="14.00">4</text>
</g>
<!-- src/terse/proxy.py&#45;&gt;src/terse/transport.py -->
<g id="edge18" class="edge">
<title>src/terse/proxy.py&#45;&gt;src/terse/transport.py</title>
<path fill="none" stroke="#94a3b8" d="M858.76,-263.63C839.43,-262.61 823.2,-261.75 823.2,-261.75 823.2,-261.75 663.15,-261.75 663.15,-261.75 663.15,-261.75 610.88,-300.95 576.02,-327.1"/>
<polygon fill="#94a3b8" stroke="#94a3b8" points="574.91,-325.31 571.37,-330.59 577.43,-328.67 574.91,-325.31"/>
<text xml:space="preserve" text-anchor="middle" x="743.18" y="-265.7" font-family="Times,serif" font-size="14.00">11</text>
</g>
<!-- src/terse/proxy.py&#45;&gt;src/terse/policy.py -->
<g id="edge19" class="edge">
<title>src/terse/proxy.py&#45;&gt;src/terse/policy.py</title>
<path fill="none" stroke="#94a3b8" d="M988.1,-275.46C1073.89,-286.86 1216.05,-305.75 1216.05,-305.75 1216.05,-305.75 1252.05,-323 1252.05,-323 1252.05,-323 1331.25,-467.92 1363.64,-527.19"/>
<polygon fill="#94a3b8" stroke="#94a3b8" points="1361.72,-528.06 1366.44,-532.32 1365.41,-526.05 1361.72,-528.06"/>
<text xml:space="preserve" text-anchor="middle" x="1137.9" y="-309.7" font-family="Times,serif" font-size="14.00">6</text>
</g>
<!-- src/terse/proxy.py&#45;&gt;src/terse/multiproxy.py -->
<g id="edge20" class="edge">
<title>src/terse/proxy.py&#45;&gt;src/terse/multiproxy.py</title>
<path fill="none" stroke="#94a3b8" d="M939.08,-285.31C968.63,-322.36 1032.75,-402.75 1032.75,-402.75 1032.75,-402.75 1090.5,-485.5 1119.99,-527.77"/>
<polygon fill="#94a3b8" stroke="#94a3b8" points="1118.11,-528.74 1123.26,-532.46 1121.55,-526.34 1118.11,-528.74"/>
<text xml:space="preserve" text-anchor="middle" x="1028.25" y="-406.7" font-family="Times,serif" font-size="14.00">2</text>
</g>
<!-- src/terse/proxy.py&#45;&gt;src/terse/transforms.py -->
<g id="edge45" class="edge">
<title>src/terse/proxy.py&#45;&gt;src/terse/transforms.py</title>
<path fill="none" stroke="#94a3b8" d="M942.16,-248.7C978.83,-210.75 1059.75,-127 1059.75,-127 1059.75,-127 1216.05,-127 1216.05,-127 1216.05,-127 1477.35,-522 1477.35,-522 1477.35,-522 1578.15,-698.03 1616.06,-764.23"/>
<polygon fill="#94a3b8" stroke="#94a3b8" points="1614.18,-765.17 1618.99,-769.33 1617.83,-763.08 1614.18,-765.17"/>
<text xml:space="preserve" text-anchor="middle" x="1247.55" y="-184.35" font-family="Times,serif" font-size="14.00">2</text>
</g>
<!-- src/terse/proxy.py&#45;&gt;src/terse/stats.py -->
<g id="edge51" class="edge">
<title>src/terse/proxy.py&#45;&gt;src/terse/stats.py</title>
<path fill="none" stroke="#94a3b8" d="M947,-285.38C976.29,-309.28 1023.75,-348 1023.75,-348 1023.75,-348 1216.05,-504.75 1216.05,-504.75 1216.05,-504.75 1252.05,-546 1252.05,-546 1252.05,-546 1328.71,-670.34 1362.03,-724.4"/>
<polygon fill="#94a3b8" stroke="#94a3b8" points="1360.14,-725.33 1365.08,-729.34 1363.72,-723.13 1360.14,-725.33"/>
<text xml:space="preserve" text-anchor="middle" x="1137.9" y="-508.7" font-family="Times,serif" font-size="14.00">1</text>
</g>
<!-- src/terse/tokenize.py -->
<g id="node17" class="node">
<title>src/terse/tokenize.py</title>
<path fill="#f8fafc" stroke="#cbd5e1" stroke-width="1.1" d="M1918.2,-807C1918.2,-807 1797.15,-807 1797.15,-807 1791.15,-807 1785.15,-801 1785.15,-795 1785.15,-795 1785.15,-783 1785.15,-783 1785.15,-777 1791.15,-771 1797.15,-771 1797.15,-771 1918.2,-771 1918.2,-771 1924.2,-771 1930.2,-777 1930.2,-783 1930.2,-783 1930.2,-795 1930.2,-795 1930.2,-801 1924.2,-807 1918.2,-807"/>
<text xml:space="preserve" text-anchor="middle" x="1857.68" y="-785.3" font-family="Helvetica,sans-Serif" font-size="11.00" fill="#334155">src/terse/tokenize.py</text>
</g>
<!-- src/terse/proxy.py&#45;&gt;src/terse/tokenize.py -->
<g id="edge46" class="edge">
<title>src/terse/proxy.py&#45;&gt;src/terse/tokenize.py</title>
<path fill="none" stroke="#94a3b8" d="M940.21,-248.46C968.2,-215.47 1023.75,-150 1023.75,-150 1023.75,-150 1136.9,-51 1136.9,-51 1136.9,-51 1136.9,-51 1632.25,-51 1632.25,-51 1722.15,-99 1722.15,-99 1722.15,-99 1827.24,-638.01 1851.65,-763.23"/>
<polygon fill="#94a3b8" stroke="#94a3b8" points="1849.58,-763.57 1852.79,-769.06 1853.7,-762.77 1849.58,-763.57"/>
<text xml:space="preserve" text-anchor="middle" x="1378.2" y="-54.95" font-family="Times,serif" font-size="14.00">1</text>
</g>
<!-- src/terse/text_diff.py -->
<g id="node31" class="node">
<title>src/terse/text_diff.py</title>
<path fill="#f8fafc" stroke="#cbd5e1" stroke-width="1.1" d="M1197.68,-176C1197.68,-176 1078.13,-176 1078.13,-176 1072.13,-176 1066.13,-170 1066.13,-164 1066.13,-164 1066.13,-152 1066.13,-152 1066.13,-146 1072.13,-140 1078.13,-140 1078.13,-140 1197.68,-140 1197.68,-140 1203.68,-140 1209.68,-146 1209.68,-152 1209.68,-152 1209.68,-164 1209.68,-164 1209.68,-170 1203.68,-176 1197.68,-176"/>
<text xml:space="preserve" text-anchor="middle" x="1137.9" y="-154.3" font-family="Helvetica,sans-Serif" font-size="11.00" fill="#334155">src/terse/text_diff.py</text>
</g>
<!-- src/terse/proxy.py&#45;&gt;src/terse/text_diff.py -->
<g id="edge61" class="edge">
<title>src/terse/proxy.py&#45;&gt;src/terse/text_diff.py</title>
<path fill="none" stroke="#94a3b8" d="M956.53,-248.52C996.54,-225.45 1059.75,-189 1059.75,-189 1059.75,-189 1070.66,-184.62 1084.27,-179.15"/>
<polygon fill="#94a3b8" stroke="#94a3b8" points="1084.94,-181.14 1089.73,-176.96 1083.38,-177.24 1084.94,-181.14"/>
<text xml:space="preserve" text-anchor="middle" x="1028.25" y="-211.8" font-family="Times,serif" font-size="14.00">1</text>
</g>
<!-- tests/test_multiproxy.py -->
<g id="node6" class="node">
<title>tests/test_multiproxy.py</title>
<path fill="#f8fafc" stroke="#cbd5e1" stroke-width="1.1" stroke-dasharray="5,2" d="M150.3,-376C150.3,-376 12,-376 12,-376 6,-376 0,-370 0,-364 0,-364 0,-352 0,-352 0,-346 6,-340 12,-340 12,-340 150.3,-340 150.3,-340 156.3,-340 162.3,-346 162.3,-352 162.3,-352 162.3,-364 162.3,-364 162.3,-370 156.3,-376 150.3,-376"/>
<text xml:space="preserve" text-anchor="middle" x="81.15" y="-354.3" font-family="Helvetica,sans-Serif" font-size="11.00" fill="#334155">tests/test_multiproxy.py</text>
</g>
<!-- tests/test_multiproxy.py&#45;&gt;tests/test_diff_soak.py -->
<g id="edge16" class="edge">
<title>tests/test_multiproxy.py&#45;&gt;tests/test_diff_soak.py</title>
<path fill="none" stroke="#94a3b8" d="M162.79,-358C181.19,-358 200.77,-358 219.26,-358"/>
<polygon fill="#94a3b8" stroke="#94a3b8" points="219.04,-360.1 225.04,-358 219.04,-355.9 219.04,-360.1"/>
<text xml:space="preserve" text-anchor="middle" x="193.8" y="-361.95" font-family="Times,serif" font-size="14.00">4</text>
</g>
<!-- tests/test_multiproxy.py&#45;&gt;src/terse/transport.py -->
<g id="edge13" class="edge">
<title>tests/test_multiproxy.py&#45;&gt;src/terse/transport.py</title>
<path fill="none" stroke="#94a3b8" d="M162.51,-375.4C195.14,-382.47 225.3,-389 225.3,-389 225.3,-389 380.85,-389 380.85,-389 380.85,-389 421.4,-379.28 462.01,-369.54"/>
<polygon fill="#94a3b8" stroke="#94a3b8" points="462.5,-371.58 467.84,-368.14 461.52,-367.5 462.5,-371.58"/>
<text xml:space="preserve" text-anchor="middle" x="303.08" y="-392.95" font-family="Times,serif" font-size="14.00">4</text>
</g>
<!-- tests/test_multiproxy.py&#45;&gt;src/terse/policy.py -->
<g id="edge14" class="edge">
<title>tests/test_multiproxy.py&#45;&gt;src/terse/policy.py</title>
<path fill="none" stroke="#94a3b8" d="M93.36,-339.75C138.17,-266.8 302.08,0 302.08,0 302.08,0 302.08,0 1138.9,0 1138.9,0 1252.05,-162 1252.05,-162 1252.05,-162 1341.11,-439.53 1368.97,-526.36"/>
<polygon fill="#94a3b8" stroke="#94a3b8" points="1366.95,-526.94 1370.79,-532.01 1370.95,-525.66 1366.95,-526.94"/>
<text xml:space="preserve" text-anchor="middle" x="743.18" y="-3.95" font-family="Times,serif" font-size="14.00">3</text>
</g>
<!-- tests/test_multiproxy.py&#45;&gt;src/terse/multiproxy.py -->
<g id="edge15" class="edge">
<title>tests/test_multiproxy.py&#45;&gt;src/terse/multiproxy.py</title>
<path fill="none" stroke="#94a3b8" d="M122.53,-376.52C218.6,-420.58 452.85,-528 452.85,-528 452.85,-528 636.15,-570.75 636.15,-570.75 636.15,-570.75 663.15,-581 663.15,-581 663.15,-581 850.2,-608 850.2,-608 850.2,-608 996.75,-608 996.75,-608 996.75,-608 1044.16,-589.06 1083.82,-573.21"/>
<polygon fill="#94a3b8" stroke="#94a3b8" points="1084.42,-575.23 1089.22,-571.05 1082.86,-571.33 1084.42,-575.23"/>
<text xml:space="preserve" text-anchor="middle" x="544.5" y="-574.7" font-family="Times,serif" font-size="14.00">4</text>
</g>
<!-- tests/test_multiproxy.py&#45;&gt;src/terse/proxy.py -->
<g id="edge17" class="edge">
<title>tests/test_multiproxy.py&#45;&gt;src/terse/proxy.py</title>
<path fill="none" stroke="#94a3b8" d="M103.89,-339.47C143.94,-305.34 225.3,-236 225.3,-236 225.3,-236 452.85,-165 452.85,-165 452.85,-165 636.15,-165 636.15,-165 636.15,-165 823.2,-168 823.2,-168 823.2,-168 869.65,-214.32 899,-243.59"/>
<polygon fill="#94a3b8" stroke="#94a3b8" points="897.46,-245.02 903.19,-247.77 900.43,-242.05 897.46,-245.02"/>
<text xml:space="preserve" text-anchor="middle" x="416.85" y="-182.93" font-family="Times,serif" font-size="14.00">1</text>
</g>
<!-- src/terse/fluency/questions.py -->
<g id="node7" class="node">
<title>src/terse/fluency/questions.py</title>
<path fill="#f8fafc" stroke="#cbd5e1" stroke-width="1.1" d="M1463.85,-193C1463.85,-193 1292.55,-193 1292.55,-193 1286.55,-193 1280.55,-187 1280.55,-181 1280.55,-181 1280.55,-169 1280.55,-169 1280.55,-163 1286.55,-157 1292.55,-157 1292.55,-157 1463.85,-157 1463.85,-157 1469.85,-157 1475.85,-163 1475.85,-169 1475.85,-169 1475.85,-181 1475.85,-181 1475.85,-187 1469.85,-193 1463.85,-193"/>
<text xml:space="preserve" text-anchor="middle" x="1378.2" y="-171.3" font-family="Helvetica,sans-Serif" font-size="11.00" fill="#334155">src/terse/fluency/questions.py</text>
</g>
<!-- src/terse/fluency/questions.py&#45;&gt;src/terse/transforms.py -->
<g id="edge22" class="edge">
<title>src/terse/fluency/questions.py&#45;&gt;src/terse/transforms.py</title>
<path fill="none" stroke="#94a3b8" d="M1476.34,-191.47C1497.32,-195.03 1513.35,-197.75 1513.35,-197.75 1513.35,-197.75 1602.74,-649.85 1625.18,-763.38"/>
<polygon fill="#94a3b8" stroke="#94a3b8" points="1623.11,-763.69 1626.33,-769.17 1627.23,-762.88 1623.11,-763.69"/>
<text xml:space="preserve" text-anchor="middle" x="1508.85" y="-201.7" font-family="Times,serif" font-size="14.00">7</text>
</g>
<!-- src/terse/fluency/scoring.py -->
<g id="node10" class="node">
<title>src/terse/fluency/scoring.py</title>
<path fill="#f8fafc" stroke="#cbd5e1" stroke-width="1.1" d="M1710.15,-148C1710.15,-148 1552.35,-148 1552.35,-148 1546.35,-148 1540.35,-142 1540.35,-136 1540.35,-136 1540.35,-124 1540.35,-124 1540.35,-118 1546.35,-112 1552.35,-112 1552.35,-112 1710.15,-112 1710.15,-112 1716.15,-112 1722.15,-118 1722.15,-124 1722.15,-124 1722.15,-136 1722.15,-136 1722.15,-142 1716.15,-148 1710.15,-148"/>
<text xml:space="preserve" text-anchor="middle" x="1631.25" y="-126.3" font-family="Helvetica,sans-Serif" font-size="11.00" fill="#334155">src/terse/fluency/scoring.py</text>
</g>
<!-- src/terse/fluency/questions.py&#45;&gt;src/terse/fluency/scoring.py -->
<g id="edge55" class="edge">
<title>src/terse/fluency/questions.py&#45;&gt;src/terse/fluency/scoring.py</title>
<path fill="none" stroke="#94a3b8" d="M1474.69,-156.5C1491.82,-153.18 1504.35,-150.75 1504.35,-150.75 1504.35,-150.75 1516.26,-148.79 1532.76,-146.07"/>
<polygon fill="#94a3b8" stroke="#94a3b8" points="1533.02,-148.15 1538.6,-145.11 1532.34,-144.01 1533.02,-148.15"/>
<text xml:space="preserve" text-anchor="middle" x="1508.85" y="-154.7" font-family="Times,serif" font-size="14.00">2</text>
</g>
<!-- src/terse/transforms.py&#45;&gt;src/terse/tokenize.py -->
<g id="edge62" class="edge">
<title>src/terse/transforms.py&#45;&gt;src/terse/tokenize.py</title>
<path fill="none" stroke="#94a3b8" d="M1711.06,-789C1732.62,-789 1755.99,-789 1777.56,-789"/>
<polygon fill="#94a3b8" stroke="#94a3b8" points="1777.29,-791.1 1783.29,-789 1777.29,-786.9 1777.29,-791.1"/>
<text xml:space="preserve" text-anchor="middle" x="1753.65" y="-792.95" font-family="Times,serif" font-size="14.00">1</text>
</g>
<!-- src/terse/fluency/harnesses.py -->
<g id="node9" class="node">
<title>src/terse/fluency/harnesses.py</title>
<path fill="#f8fafc" stroke="#cbd5e1" stroke-width="1.1" d="M1465.35,-129C1465.35,-129 1291.05,-129 1291.05,-129 1285.05,-129 1279.05,-123 1279.05,-117 1279.05,-117 1279.05,-105 1279.05,-105 1279.05,-99 1285.05,-93 1291.05,-93 1291.05,-93 1465.35,-93 1465.35,-93 1471.35,-93 1477.35,-99 1477.35,-105 1477.35,-105 1477.35,-117 1477.35,-117 1477.35,-123 1471.35,-129 1465.35,-129"/>
<text xml:space="preserve" text-anchor="middle" x="1378.2" y="-107.3" font-family="Helvetica,sans-Serif" font-size="11.00" fill="#334155">src/terse/fluency/harnesses.py</text>
</g>
<!-- src/terse/fluency/harnesses.py&#45;&gt;src/terse/fluency/scoring.py -->
<g id="edge23" class="edge">
<title>src/terse/fluency/harnesses.py&#45;&gt;src/terse/fluency/scoring.py</title>
<path fill="none" stroke="#94a3b8" d="M1477.81,-105.29C1493.32,-104.39 1504.35,-103.75 1504.35,-103.75 1504.35,-103.75 1513.35,-103.75 1513.35,-103.75 1513.35,-103.75 1524.91,-106.35 1540.76,-109.9"/>
<polygon fill="#94a3b8" stroke="#94a3b8" points="1540,-111.89 1546.31,-111.15 1540.92,-107.79 1540,-111.89"/>
<text xml:space="preserve" text-anchor="middle" x="1508.85" y="-107.7" font-family="Times,serif" font-size="14.00">1</text>
</g>
<!-- src/terse/install_mcp.py -->
<g id="node11" class="node">
<title>src/terse/install_mcp.py</title>
<path fill="#f8fafc" stroke="#cbd5e1" stroke-width="1.1" d="M811.2,-1645C811.2,-1645 675.15,-1645 675.15,-1645 669.15,-1645 663.15,-1639 663.15,-1633 663.15,-1633 663.15,-1621 663.15,-1621 663.15,-1615 669.15,-1609 675.15,-1609 675.15,-1609 811.2,-1609 811.2,-1609 817.2,-1609 823.2,-1615 823.2,-1621 823.2,-1621 823.2,-1633 823.2,-1633 823.2,-1639 817.2,-1645 811.2,-1645"/>
<text xml:space="preserve" text-anchor="middle" x="743.18" y="-1623.3" font-family="Helvetica,sans-Serif" font-size="11.00" fill="#334155">src/terse/install_mcp.py</text>
</g>
<!-- src/terse/_secure_io.py -->
<g id="node12" class="node">
<title>src/terse/_secure_io.py</title>
<path fill="#f8fafc" stroke="#cbd5e1" stroke-width="1.1" d="M1697.03,-1399C1697.03,-1399 1565.48,-1399 1565.48,-1399 1559.48,-1399 1553.48,-1393 1553.48,-1387 1553.48,-1387 1553.48,-1375 1553.48,-1375 1553.48,-1369 1559.48,-1363 1565.48,-1363 1565.48,-1363 1697.03,-1363 1697.03,-1363 1703.03,-1363 1709.03,-1369 1709.03,-1375 1709.03,-1375 1709.03,-1387 1709.03,-1387 1709.03,-1393 1703.03,-1399 1697.03,-1399"/>
<text xml:space="preserve" text-anchor="middle" x="1631.25" y="-1377.3" font-family="Helvetica,sans-Serif" font-size="11.00" fill="#334155">src/terse/_secure_io.py</text>
</g>
<!-- src/terse/install_mcp.py&#45;&gt;src/terse/_secure_io.py -->
<g id="edge24" class="edge">
<title>src/terse/install_mcp.py&#45;&gt;src/terse/_secure_io.py</title>
<path fill="none" stroke="#94a3b8" d="M823.4,-1627C907.15,-1627 1027.25,-1627 1027.25,-1627 1027.25,-1627 1027.25,-1627 1379.2,-1627 1379.2,-1627 1513.35,-1583 1513.35,-1583 1513.35,-1583 1584.95,-1459.27 1616.08,-1405.48"/>
<polygon fill="#94a3b8" stroke="#94a3b8" points="1617.72,-1406.84 1618.91,-1400.59 1614.09,-1404.73 1617.72,-1406.84"/>
<text xml:space="preserve" text-anchor="middle" x="1137.9" y="-1630.95" font-family="Times,serif" font-size="14.00">2</text>
</g>
<!-- src/terse/stats.py&#45;&gt;src/terse/_secure_io.py -->
<g id="edge65" class="edge">
<title>src/terse/stats.py&#45;&gt;src/terse/_secure_io.py</title>
<path fill="none" stroke="#94a3b8" d="M1386.44,-767.23C1422.12,-857.05 1579.13,-1252.31 1620.32,-1356.01"/>
<polygon fill="#94a3b8" stroke="#94a3b8" points="1618.25,-1356.49 1622.42,-1361.29 1622.16,-1354.93 1618.25,-1356.49"/>
<text xml:space="preserve" text-anchor="middle" x="1508.85" y="-1087.9" font-family="Times,serif" font-size="14.00">1</text>
</g>
<!-- src/terse/probes.py -->
<g id="node14" class="node">
<title>src/terse/probes.py</title>
<path fill="#f8fafc" stroke="#cbd5e1" stroke-width="1.1" d="M979.5,-947C979.5,-947 867.45,-947 867.45,-947 861.45,-947 855.45,-941 855.45,-935 855.45,-935 855.45,-923 855.45,-923 855.45,-917 861.45,-911 867.45,-911 867.45,-911 979.5,-911 979.5,-911 985.5,-911 991.5,-917 991.5,-923 991.5,-923 991.5,-935 991.5,-935 991.5,-941 985.5,-947 979.5,-947"/>
<text xml:space="preserve" text-anchor="middle" x="923.48" y="-925.3" font-family="Helvetica,sans-Serif" font-size="11.00" fill="#334155">src/terse/probes.py</text>
</g>
<!-- src/terse/probes.py&#45;&gt;src/terse/transforms.py -->
<g id="edge26" class="edge">
<title>src/terse/probes.py&#45;&gt;src/terse/transforms.py</title>
<path fill="none" stroke="#94a3b8" d="M992.03,-926.36C1146.7,-920.32 1513.35,-906 1513.35,-906 1513.35,-906 1572.29,-847.01 1606.47,-812.8"/>
<polygon fill="#94a3b8" stroke="#94a3b8" points="1607.9,-814.34 1610.66,-808.61 1604.93,-811.37 1607.9,-814.34"/>
<text xml:space="preserve" text-anchor="middle" x="1247.55" y="-920.39" font-family="Times,serif" font-size="14.00">1</text>
</g>
<!-- src/terse/cli.py -->
<g id="node15" class="node">
<title>src/terse/cli.py</title>
<path fill="#f8fafc" stroke="#cbd5e1" stroke-width="1.1" d="M346.35,-1180C346.35,-1180 259.8,-1180 259.8,-1180 253.8,-1180 247.8,-1174 247.8,-1168 247.8,-1168 247.8,-1156 247.8,-1156 247.8,-1150 253.8,-1144 259.8,-1144 259.8,-1144 346.35,-1144 346.35,-1144 352.35,-1144 358.35,-1150 358.35,-1156 358.35,-1156 358.35,-1168 358.35,-1168 358.35,-1174 352.35,-1180 346.35,-1180"/>
<text xml:space="preserve" text-anchor="middle" x="303.08" y="-1158.3" font-family="Helvetica,sans-Serif" font-size="11.00" fill="#334155">src/terse/cli.py</text>
</g>
<!-- src/terse/cli.py&#45;&gt;src/terse/transport.py -->
<g id="edge28" class="edge">
<title>src/terse/cli.py&#45;&gt;src/terse/transport.py</title>
<path fill="none" stroke="#94a3b8" d="M307.62,-1143.6C322.72,-1065.33 380.85,-764 380.85,-764 380.85,-764 407.85,-606.75 407.85,-606.75 407.85,-606.75 496.09,-439.73 530.23,-375.11"/>
<polygon fill="#94a3b8" stroke="#94a3b8" points="532.09,-376.09 533.04,-369.8 528.38,-374.13 532.09,-376.09"/>
<text xml:space="preserve" text-anchor="middle" x="416.85" y="-610.7" font-family="Times,serif" font-size="14.00">2</text>
</g>
<!-- src/terse/cli.py&#45;&gt;src/terse/policy.py -->
<g id="edge30" class="edge">
<title>src/terse/cli.py&#45;&gt;src/terse/policy.py</title>
<path fill="none" stroke="#94a3b8" d="M313.1,-1143.73C338.35,-1092.64 407.85,-952 407.85,-952 407.85,-952 543.5,-866 543.5,-866 543.5,-866 543.5,-866 1138.9,-866 1138.9,-866 1303.14,-649.59 1358.92,-576.09"/>
<polygon fill="#94a3b8" stroke="#94a3b8" points="1360.49,-577.49 1362.44,-571.44 1357.14,-574.95 1360.49,-577.49"/>
<text xml:space="preserve" text-anchor="middle" x="923.48" y="-869.95" font-family="Times,serif" font-size="14.00">9</text>
</g>
<!-- src/terse/cli.py&#45;&gt;src/terse/multiproxy.py -->
<g id="edge42" class="edge">
<title>src/terse/cli.py&#45;&gt;src/terse/multiproxy.py</title>
<path fill="none" stroke="#94a3b8" d="M310.1,-1143.7C332.25,-1076.47 407.85,-847 407.85,-847 407.85,-847 1032.75,-737 1032.75,-737 1032.75,-737 1094.52,-627.28 1122.92,-576.84"/>
<polygon fill="#94a3b8" stroke="#94a3b8" points="1124.68,-577.99 1125.79,-571.73 1121.02,-575.93 1124.68,-577.99"/>
<text xml:space="preserve" text-anchor="middle" x="743.18" y="-804.8" font-family="Times,serif" font-size="14.00">1</text>
</g>
<!-- src/terse/cli.py&#45;&gt;src/terse/proxy.py -->
<g id="edge43" class="edge">
<title>src/terse/cli.py&#45;&gt;src/terse/proxy.py</title>
<path fill="none" stroke="#94a3b8" d="M308.47,-1143.54C328.22,-1060.56 407.85,-726 407.85,-726 407.85,-726 452.85,-650.75 452.85,-650.75 452.85,-650.75 636.15,-594 636.15,-594 636.15,-594 663.15,-397 663.15,-397 663.15,-397 823.2,-336 823.2,-336 823.2,-336 860.91,-309.79 889.85,-289.68"/>
<polygon fill="#94a3b8" stroke="#94a3b8" points="890.9,-291.5 894.63,-286.35 888.5,-288.05 890.9,-291.5"/>
<text xml:space="preserve" text-anchor="middle" x="544.5" y="-654.7" font-family="Times,serif" font-size="14.00">1</text>
</g>
<!-- src/terse/cli.py&#45;&gt;src/terse/transforms.py -->
<g id="edge35" class="edge">
<title>src/terse/cli.py&#45;&gt;src/terse/transforms.py</title>
<path fill="none" stroke="#94a3b8" d="M322.02,-1143.67C361.59,-1103.24 452.85,-1010 452.85,-1010 452.85,-1010 922.48,-1007 922.48,-1007 922.48,-1007 922.48,-1007 1379.2,-1007 1379.2,-1007 1513.35,-925 1513.35,-925 1513.35,-925 1576.24,-851.84 1609.76,-812.84"/>
<polygon fill="#94a3b8" stroke="#94a3b8" points="1611.18,-814.41 1613.5,-808.49 1607.99,-811.67 1611.18,-814.41"/>
<text xml:space="preserve" text-anchor="middle" x="1028.25" y="-1010.95" font-family="Times,serif" font-size="14.00">2</text>
</g>
<!-- src/terse/cli.py&#45;&gt;src/terse/install_mcp.py -->
<g id="edge36" class="edge">
<title>src/terse/cli.py&#45;&gt;src/terse/install_mcp.py</title>
<path fill="none" stroke="#94a3b8" d="M308.47,-1180.33C328.22,-1262.74 407.85,-1595 407.85,-1595 407.85,-1595 556.54,-1609.23 655.6,-1618.71"/>
<polygon fill="#94a3b8" stroke="#94a3b8" points="655.27,-1620.79 661.44,-1619.27 655.67,-1616.61 655.27,-1620.79"/>
<text xml:space="preserve" text-anchor="middle" x="416.85" y="-1600.4" font-family="Times,serif" font-size="14.00">3</text>
</g>
<!-- src/terse/cli.py&#45;&gt;src/terse/_secure_io.py -->
<g id="edge34" class="edge">
<title>src/terse/cli.py&#45;&gt;src/terse/_secure_io.py</title>
<path fill="none" stroke="#94a3b8" d="M311.87,-1180.34C336.01,-1237.08 407.85,-1406 407.85,-1406 407.85,-1406 452.85,-1445 452.85,-1445 452.85,-1445 850.2,-1450 850.2,-1450 850.2,-1450 996.75,-1450 996.75,-1450 996.75,-1450 1373.48,-1408.97 1545.9,-1390.19"/>
<polygon fill="#94a3b8" stroke="#94a3b8" points="1545.96,-1392.29 1551.7,-1389.56 1545.51,-1388.12 1545.96,-1392.29"/>
<text xml:space="preserve" text-anchor="middle" x="1028.25" y="-1450.82" font-family="Times,serif" font-size="14.00">1</text>
</g>
<!-- src/terse/cli.py&#45;&gt;src/terse/stats.py -->
<g id="edge41" class="edge">
<title>src/terse/cli.py&#45;&gt;src/terse/stats.py</title>
<path fill="none" stroke="#94a3b8" d="M312.92,-1180.42C338.02,-1232.65 407.85,-1378 407.85,-1378 407.85,-1378 452.85,-1424 452.85,-1424 452.85,-1424 663.15,-1428 663.15,-1428 663.15,-1428 823.2,-1428 823.2,-1428 823.2,-1428 996.75,-1420 996.75,-1420 996.75,-1420 1216.05,-1196 1216.05,-1196 1216.05,-1196 1334.03,-868.74 1368.09,-774.26"/>
<polygon fill="#94a3b8" stroke="#94a3b8" points="1370.01,-775.14 1370.07,-768.78 1366.06,-773.71 1370.01,-775.14"/>
<text xml:space="preserve" text-anchor="middle" x="923.48" y="-1430.67" font-family="Times,serif" font-size="14.00">6</text>
</g>
<!-- src/terse/cli.py&#45;&gt;src/terse/probes.py -->
<g id="edge40" class="edge">
<title>src/terse/cli.py&#45;&gt;src/terse/probes.py</title>
<path fill="none" stroke="#94a3b8" d="M313.84,-1143.47C339.67,-1094.43 407.85,-965 407.85,-965 407.85,-965 452.85,-947.75 452.85,-947.75 452.85,-947.75 714.98,-937.28 847.56,-931.99"/>
<polygon fill="#94a3b8" stroke="#94a3b8" points="847.52,-934.09 853.43,-931.76 847.35,-929.9 847.52,-934.09"/>
<text xml:space="preserve" text-anchor="middle" x="544.5" y="-951.7" font-family="Times,serif" font-size="14.00">5</text>
</g>
<!-- src/terse/capture.py -->
<g id="node16" class="node">
<title>src/terse/capture.py</title>
<path fill="#f8fafc" stroke="#cbd5e1" stroke-width="1.1" d="M1196.18,-1183C1196.18,-1183 1079.63,-1183 1079.63,-1183 1073.63,-1183 1067.63,-1177 1067.63,-1171 1067.63,-1171 1067.63,-1159 1067.63,-1159 1067.63,-1153 1073.63,-1147 1079.63,-1147 1079.63,-1147 1196.18,-1147 1196.18,-1147 1202.18,-1147 1208.18,-1153 1208.18,-1159 1208.18,-1159 1208.18,-1171 1208.18,-1171 1208.18,-1177 1202.18,-1183 1196.18,-1183"/>
<text xml:space="preserve" text-anchor="middle" x="1137.9" y="-1161.3" font-family="Helvetica,sans-Serif" font-size="11.00" fill="#334155">src/terse/capture.py</text>
</g>
<!-- src/terse/cli.py&#45;&gt;src/terse/capture.py -->
<g id="edge27" class="edge">
<title>src/terse/cli.py&#45;&gt;src/terse/capture.py</title>
<path fill="none" stroke="#94a3b8" d="M314.4,-1180.51C340.65,-1227.56 407.85,-1348 407.85,-1348 407.85,-1348 452.85,-1405 452.85,-1405 452.85,-1405 636.15,-1405 636.15,-1405 636.15,-1405 996.75,-1400 996.75,-1400 996.75,-1400 1086.22,-1249.97 1122.19,-1189.66"/>
<polygon fill="#94a3b8" stroke="#94a3b8" points="1123.86,-1190.97 1125.13,-1184.74 1120.25,-1188.82 1123.86,-1190.97"/>
<text xml:space="preserve" text-anchor="middle" x="743.18" y="-1408.57" font-family="Times,serif" font-size="14.00">13</text>
</g>
<!-- src/terse/cli.py&#45;&gt;src/terse/tokenize.py -->
<g id="edge29" class="edge">
<title>src/terse/cli.py&#45;&gt;src/terse/tokenize.py</title>
<path fill="none" stroke="#94a3b8" d="M308.27,-1180.52C327.69,-1266.21 407.85,-1620 407.85,-1620 407.85,-1620 543.5,-1694 543.5,-1694 543.5,-1694 543.5,-1694 1632.25,-1694 1632.25,-1694 1722.15,-1412 1722.15,-1412 1722.15,-1412 1825.9,-931.54 1851.17,-814.48"/>
<polygon fill="#94a3b8" stroke="#94a3b8" points="1853.19,-815.1 1852.4,-808.79 1849.08,-814.21 1853.19,-815.1"/>
<text xml:space="preserve" text-anchor="middle" x="1137.9" y="-1697.95" font-family="Times,serif" font-size="14.00">2</text>
</g>
<!-- src/terse/dropeval.py -->
<g id="node18" class="node">
<title>src/terse/dropeval.py</title>
<path fill="#f8fafc" stroke="#cbd5e1" stroke-width="1.1" d="M984.75,-1115C984.75,-1115 862.2,-1115 862.2,-1115 856.2,-1115 850.2,-1109 850.2,-1103 850.2,-1103 850.2,-1091 850.2,-1091 850.2,-1085 856.2,-1079 862.2,-1079 862.2,-1079 984.75,-1079 984.75,-1079 990.75,-1079 996.75,-1085 996.75,-1091 996.75,-1091 996.75,-1103 996.75,-1103 996.75,-1109 990.75,-1115 984.75,-1115"/>
<text xml:space="preserve" text-anchor="middle" x="923.48" y="-1093.3" font-family="Helvetica,sans-Serif" font-size="11.00" fill="#334155">src/terse/dropeval.py</text>
</g>
<!-- src/terse/cli.py&#45;&gt;src/terse/dropeval.py -->
<g id="edge31" class="edge">
<title>src/terse/cli.py&#45;&gt;src/terse/dropeval.py</title>
<path fill="none" stroke="#94a3b8" d="M358.7,-1174.11C383.7,-1179.65 407.85,-1185 407.85,-1185 407.85,-1185 452.85,-1193 452.85,-1193 452.85,-1193 636.15,-1193 636.15,-1193 636.15,-1193 776.09,-1146.08 860.3,-1117.85"/>
<polygon fill="#94a3b8" stroke="#94a3b8" points="860.81,-1119.89 865.83,-1115.99 859.48,-1115.91 860.81,-1119.89"/>
<text xml:space="preserve" text-anchor="middle" x="544.5" y="-1196.95" font-family="Times,serif" font-size="14.00">2</text>
</g>
<!-- src/terse/report.py -->
<g id="node19" class="node">
<title>src/terse/report.py</title>
<path fill="#f8fafc" stroke="#cbd5e1" stroke-width="1.1" d="M598.65,-1369C598.65,-1369 490.35,-1369 490.35,-1369 484.35,-1369 478.35,-1363 478.35,-1357 478.35,-1357 478.35,-1345 478.35,-1345 478.35,-1339 484.35,-1333 490.35,-1333 490.35,-1333 598.65,-1333 598.65,-1333 604.65,-1333 610.65,-1339 610.65,-1345 610.65,-1345 610.65,-1357 610.65,-1357 610.65,-1363 604.65,-1369 598.65,-1369"/>
<text xml:space="preserve" text-anchor="middle" x="544.5" y="-1347.3" font-family="Helvetica,sans-Serif" font-size="11.00" fill="#334155">src/terse/report.py</text>
</g>
<!-- src/terse/cli.py&#45;&gt;src/terse/report.py -->
<g id="edge32" class="edge">
<title>src/terse/cli.py&#45;&gt;src/terse/report.py</title>
<path fill="none" stroke="#94a3b8" d="M320.75,-1180.48C350.08,-1212.98 407.85,-1277 407.85,-1277 407.85,-1277 452.85,-1321 452.85,-1321 452.85,-1321 465.2,-1325.09 480.79,-1330.25"/>
<polygon fill="#94a3b8" stroke="#94a3b8" points="479.85,-1332.15 486.2,-1332.04 481.17,-1328.16 479.85,-1332.15"/>
<text xml:space="preserve" text-anchor="middle" x="416.85" y="-1297.72" font-family="Times,serif" font-size="14.00">12</text>
</g>
<!-- src/terse/terminal_report.py -->
<g id="node20" class="node">
<title>src/terse/terminal_report.py</title>
<path fill="#f8fafc" stroke="#cbd5e1" stroke-width="1.1" d="M624.15,-1308C624.15,-1308 464.85,-1308 464.85,-1308 458.85,-1308 452.85,-1302 452.85,-1296 452.85,-1296 452.85,-1284 452.85,-1284 452.85,-1278 458.85,-1272 464.85,-1272 464.85,-1272 624.15,-1272 624.15,-1272 630.15,-1272 636.15,-1278 636.15,-1284 636.15,-1284 636.15,-1296 636.15,-1296 636.15,-1302 630.15,-1308 624.15,-1308"/>
<text xml:space="preserve" text-anchor="middle" x="544.5" y="-1286.3" font-family="Helvetica,sans-Serif" font-size="11.00" fill="#334155">src/terse/terminal_report.py</text>
</g>
<!-- src/terse/cli.py&#45;&gt;src/terse/terminal_report.py -->
<g id="edge33" class="edge">
<title>src/terse/cli.py&#45;&gt;src/terse/terminal_report.py</title>
<path fill="none" stroke="#94a3b8" d="M326.08,-1180.45C356.55,-1205.99 407.85,-1249 407.85,-1249 407.85,-1249 441.75,-1259.24 475.65,-1269.49"/>
<polygon fill="#94a3b8" stroke="#94a3b8" points="474.62,-1271.38 480.97,-1271.1 475.84,-1267.35 474.62,-1271.38"/>
<text xml:space="preserve" text-anchor="middle" x="416.85" y="-1258.03" font-family="Times,serif" font-size="14.00">6</text>
</g>
<!-- src/terse/measure.py -->
<g id="node21" class="node">
<title>src/terse/measure.py</title>
<path fill="#f8fafc" stroke="#cbd5e1" stroke-width="1.1" d="M984.75,-1387C984.75,-1387 862.2,-1387 862.2,-1387 856.2,-1387 850.2,-1381 850.2,-1375 850.2,-1375 850.2,-1363 850.2,-1363 850.2,-1357 856.2,-1351 862.2,-1351 862.2,-1351 984.75,-1351 984.75,-1351 990.75,-1351 996.75,-1357 996.75,-1363 996.75,-1363 996.75,-1375 996.75,-1375 996.75,-1381 990.75,-1387 984.75,-1387"/>
<text xml:space="preserve" text-anchor="middle" x="923.48" y="-1365.3" font-family="Helvetica,sans-Serif" font-size="11.00" fill="#334155">src/terse/measure.py</text>
</g>
<!-- src/terse/cli.py&#45;&gt;src/terse/measure.py -->
<g id="edge37" class="edge">
<title>src/terse/cli.py&#45;&gt;src/terse/measure.py</title>
<path fill="none" stroke="#94a3b8" d="M316.39,-1180.39C343.88,-1221.45 407.85,-1317 407.85,-1317 407.85,-1317 452.85,-1382 452.85,-1382 452.85,-1382 636.15,-1382 636.15,-1382 636.15,-1382 757.83,-1376.48 842.54,-1372.63"/>
<polygon fill="#94a3b8" stroke="#94a3b8" points="842.44,-1374.74 848.34,-1372.37 842.25,-1370.54 842.44,-1374.74"/>
<text xml:space="preserve" text-anchor="middle" x="544.5" y="-1385.95" font-family="Times,serif" font-size="14.00">3</text>
</g>
<!-- src/terse/html_report.py -->
<g id="node22" class="node">
<title>src/terse/html_report.py</title>
<path fill="#f8fafc" stroke="#cbd5e1" stroke-width="1.1" d="M613.65,-1180C613.65,-1180 475.35,-1180 475.35,-1180 469.35,-1180 463.35,-1174 463.35,-1168 463.35,-1168 463.35,-1156 463.35,-1156 463.35,-1150 469.35,-1144 475.35,-1144 475.35,-1144 613.65,-1144 613.65,-1144 619.65,-1144 625.65,-1150 625.65,-1156 625.65,-1156 625.65,-1168 625.65,-1168 625.65,-1174 619.65,-1180 613.65,-1180"/>
<text xml:space="preserve" text-anchor="middle" x="544.5" y="-1158.3" font-family="Helvetica,sans-Serif" font-size="11.00" fill="#334155">src/terse/html_report.py</text>
</g>
<!-- src/terse/cli.py&#45;&gt;src/terse/html_report.py -->
<g id="edge38" class="edge">
<title>src/terse/cli.py&#45;&gt;src/terse/html_report.py</title>
<path fill="none" stroke="#94a3b8" d="M358.7,-1162C387.45,-1162 423.38,-1162 455.9,-1162"/>
<polygon fill="#94a3b8" stroke="#94a3b8" points="455.7,-1164.1 461.7,-1162 455.7,-1159.9 455.7,-1164.1"/>
<text xml:space="preserve" text-anchor="middle" x="416.85" y="-1165.95" font-family="Times,serif" font-size="14.00">2</text>
</g>
<!-- src/terse/policy_gen.py -->
<g id="node23" class="node">
<title>src/terse/policy_gen.py</title>
<path fill="#f8fafc" stroke="#cbd5e1" stroke-width="1.1" d="M610.65,-1119C610.65,-1119 478.35,-1119 478.35,-1119 472.35,-1119 466.35,-1113 466.35,-1107 466.35,-1107 466.35,-1095 466.35,-1095 466.35,-1089 472.35,-1083 478.35,-1083 478.35,-1083 610.65,-1083 610.65,-1083 616.65,-1083 622.65,-1089 622.65,-1095 622.65,-1095 622.65,-1107 622.65,-1107 622.65,-1113 616.65,-1119 610.65,-1119"/>
<text xml:space="preserve" text-anchor="middle" x="544.5" y="-1097.3" font-family="Helvetica,sans-Serif" font-size="11.00" fill="#334155">src/terse/policy_gen.py</text>
</g>
<!-- src/terse/cli.py&#45;&gt;src/terse/policy_gen.py -->
<g id="edge39" class="edge">
<title>src/terse/cli.py&#45;&gt;src/terse/policy_gen.py</title>
<path fill="none" stroke="#94a3b8" d="M358.7,-1148.08C389.76,-1140.17 429.2,-1130.12 463.67,-1121.34"/>
<polygon fill="#94a3b8" stroke="#94a3b8" points="464.18,-1123.38 469.48,-1119.86 463.15,-1119.31 464.18,-1123.38"/>
<text xml:space="preserve" text-anchor="middle" x="416.85" y="-1139.1" font-family="Times,serif" font-size="14.00">1</text>
</g>
<!-- tests/test_drop.py -->
<g id="node24" class="node">
<title>tests/test_drop.py</title>
<path fill="#f8fafc" stroke="#cbd5e1" stroke-width="1.1" stroke-dasharray="5,2" d="M597.15,-777C597.15,-777 491.85,-777 491.85,-777 485.85,-777 479.85,-771 479.85,-765 479.85,-765 479.85,-753 479.85,-753 479.85,-747 485.85,-741 491.85,-741 491.85,-741 597.15,-741 597.15,-741 603.15,-741 609.15,-747 609.15,-753 609.15,-753 609.15,-765 609.15,-765 609.15,-771 603.15,-777 597.15,-777"/>
<text xml:space="preserve" text-anchor="middle" x="544.5" y="-755.3" font-family="Helvetica,sans-Serif" font-size="11.00" fill="#334155">tests/test_drop.py</text>
</g>
<!-- src/terse/cli.py&#45;&gt;tests/test_drop.py -->
<g id="edge44" class="edge">
<title>src/terse/cli.py&#45;&gt;tests/test_drop.py</title>
<path fill="none" stroke="#94a3b8" d="M309.08,-1143.52C329.81,-1066.96 407.85,-778.75 407.85,-778.75 407.85,-778.75 439.5,-774.14 472.22,-769.38"/>
<polygon fill="#94a3b8" stroke="#94a3b8" points="472.51,-771.46 478.15,-768.51 471.91,-767.3 472.51,-771.46"/>
<text xml:space="preserve" text-anchor="middle" x="416.85" y="-782.7" font-family="Times,serif" font-size="14.00">1</text>
</g>
<!-- src/terse/history.py -->
<g id="node29" class="node">
<title>src/terse/history.py</title>
<path fill="#f8fafc" stroke="#cbd5e1" stroke-width="1.1" d="M600.15,-1058C600.15,-1058 488.85,-1058 488.85,-1058 482.85,-1058 476.85,-1052 476.85,-1046 476.85,-1046 476.85,-1034 476.85,-1034 476.85,-1028 482.85,-1022 488.85,-1022 488.85,-1022 600.15,-1022 600.15,-1022 606.15,-1022 612.15,-1028 612.15,-1034 612.15,-1034 612.15,-1046 612.15,-1046 612.15,-1052 606.15,-1058 600.15,-1058"/>
<text xml:space="preserve" text-anchor="middle" x="544.5" y="-1036.3" font-family="Helvetica,sans-Serif" font-size="11.00" fill="#334155">src/terse/history.py</text>
</g>
<!-- src/terse/cli.py&#45;&gt;src/terse/history.py -->
<g id="edge59" class="edge">
<title>src/terse/cli.py&#45;&gt;src/terse/history.py</title>
<path fill="none" stroke="#94a3b8" d="M334.18,-1143.58C377.65,-1116.99 452.85,-1071 452.85,-1071 452.85,-1071 466.25,-1066.42 482.75,-1060.77"/>
<polygon fill="#94a3b8" stroke="#94a3b8" points="483.03,-1062.9 488.03,-1058.97 481.67,-1058.92 483.03,-1062.9"/>
<text xml:space="preserve" text-anchor="middle" x="416.85" y="-1101.84" font-family="Times,serif" font-size="14.00">3</text>
</g>
<!-- src/terse/capture.py&#45;&gt;src/terse/transforms.py -->
<g id="edge52" class="edge">
<title>src/terse/capture.py&#45;&gt;src/terse/transforms.py</title>
<path fill="none" stroke="#94a3b8" d="M1188.62,-1146.54C1290.48,-1108.73 1513.35,-1026 1513.35,-1026 1513.35,-1026 1588.03,-874.6 1618.01,-813.81"/>
<polygon fill="#94a3b8" stroke="#94a3b8" points="1619.83,-814.87 1620.6,-808.56 1616.06,-813.01 1619.83,-814.87"/>
<text xml:space="preserve" text-anchor="middle" x="1378.2" y="-1115.54" font-family="Times,serif" font-size="14.00">1</text>
</g>
<!-- src/terse/capture.py&#45;&gt;src/terse/_secure_io.py -->
<g id="edge64" class="edge">
<title>src/terse/capture.py&#45;&gt;src/terse/_secure_io.py</title>
<path fill="none" stroke="#94a3b8" d="M1180.79,-1183.42C1271.33,-1223.22 1484.86,-1317.08 1581.37,-1359.51"/>
<polygon fill="#94a3b8" stroke="#94a3b8" points="1580.39,-1361.38 1586.73,-1361.87 1582.08,-1357.53 1580.39,-1361.38"/>
<text xml:space="preserve" text-anchor="middle" x="1378.2" y="-1315.76" font-family="Times,serif" font-size="14.00">1</text>
</g>
<!-- src/terse/dropeval.py&#45;&gt;src/terse/capture.py -->
<g id="edge58" class="edge">
<title>src/terse/dropeval.py&#45;&gt;src/terse/capture.py</title>
<path fill="none" stroke="#94a3b8" d="M987.46,-1115.47C1011.28,-1122.45 1032.75,-1128.75 1032.75,-1128.75 1032.75,-1128.75 1053.65,-1136.02 1076.73,-1144.06"/>
<polygon fill="#94a3b8" stroke="#94a3b8" points="1075.82,-1145.96 1082.18,-1145.95 1077.2,-1142 1075.82,-1145.96"/>
<text xml:space="preserve" text-anchor="middle" x="1028.25" y="-1132.7" font-family="Times,serif" font-size="14.00">1</text>
</g>
<!-- src/terse/policy_gen.py&#45;&gt;src/terse/probes.py -->
<g id="edge50" class="edge">
<title>src/terse/policy_gen.py&#45;&gt;src/terse/probes.py</title>
<path fill="none" stroke="#94a3b8" d="M601.36,-1082.51C620.02,-1076.34 636.15,-1071 636.15,-1071 636.15,-1071 663.15,-1025.75 663.15,-1025.75 663.15,-1025.75 789.73,-978.53 866.02,-950.06"/>
<polygon fill="#94a3b8" stroke="#94a3b8" points="866.48,-952.13 871.36,-948.07 865.01,-948.2 866.48,-952.13"/>
<text xml:space="preserve" text-anchor="middle" x="743.18" y="-1029.7" font-family="Times,serif" font-size="14.00">1</text>
</g>
<!-- src/terse/policy_gen.py&#45;&gt;src/terse/capture.py -->
<g id="edge49" class="edge">
<title>src/terse/policy_gen.py&#45;&gt;src/terse/capture.py</title>
<path fill="none" stroke="#94a3b8" d="M623.12,-1109.4C736.73,-1121.69 947.05,-1144.45 1060.16,-1156.7"/>
<polygon fill="#94a3b8" stroke="#94a3b8" points="1059.77,-1158.77 1065.96,-1157.32 1060.22,-1154.59 1059.77,-1158.77"/>
<text xml:space="preserve" text-anchor="middle" x="923.48" y="-1153.3" font-family="Times,serif" font-size="14.00">1</text>
</g>
<!-- src/terse/policy_gen.py&#45;&gt;src/terse/measure.py -->
<g id="edge63" class="edge">
<title>src/terse/policy_gen.py&#45;&gt;src/terse/measure.py</title>
<path fill="none" stroke="#94a3b8" d="M599.54,-1119.48C618.95,-1126.12 636.15,-1132 636.15,-1132 636.15,-1132 663.15,-1184 663.15,-1184 663.15,-1184 821.37,-1296.88 890.64,-1346.29"/>
<polygon fill="#94a3b8" stroke="#94a3b8" points="889.33,-1347.93 895.43,-1349.71 891.76,-1344.51 889.33,-1347.93"/>
<text xml:space="preserve" text-anchor="middle" x="743.18" y="-1297.02" font-family="Times,serif" font-size="14.00">1</text>
</g>
<!-- tests/test_proxy.py -->
<g id="node25" class="node">
<title>tests/test_proxy.py</title>
<path fill="#f8fafc" stroke="#cbd5e1" stroke-width="1.1" stroke-dasharray="5,2" d="M599.78,-259C599.78,-259 489.23,-259 489.23,-259 483.23,-259 477.23,-253 477.23,-247 477.23,-247 477.23,-235 477.23,-235 477.23,-229 483.23,-223 489.23,-223 489.23,-223 599.78,-223 599.78,-223 605.78,-223 611.78,-229 611.78,-235 611.78,-235 611.78,-247 611.78,-247 611.78,-253 605.78,-259 599.78,-259"/>
<text xml:space="preserve" text-anchor="middle" x="544.5" y="-237.3" font-family="Helvetica,sans-Serif" font-size="11.00" fill="#334155">tests/test_proxy.py</text>
</g>
<!-- tests/test_proxy.py&#45;&gt;src/terse/proxy.py -->
<g id="edge47" class="edge">
<title>tests/test_proxy.py&#45;&gt;src/terse/proxy.py</title>
<path fill="none" stroke="#94a3b8" d="M612.23,-228.38C638.79,-223.36 663.15,-218.75 663.15,-218.75 663.15,-218.75 823.2,-218.75 823.2,-218.75 823.2,-218.75 851.4,-232.46 877.74,-245.26"/>
<polygon fill="#94a3b8" stroke="#94a3b8" points="876.7,-247.09 883.02,-247.82 878.54,-243.31 876.7,-247.09"/>
<text xml:space="preserve" text-anchor="middle" x="743.18" y="-222.7" font-family="Times,serif" font-size="14.00">6</text>
</g>
<!-- src/terse/lossy.py -->
<g id="node26" class="node">
<title>src/terse/lossy.py</title>
<path fill="#f8fafc" stroke="#cbd5e1" stroke-width="1.1" d="M353.85,-751C353.85,-751 252.3,-751 252.3,-751 246.3,-751 240.3,-745 240.3,-739 240.3,-739 240.3,-727 240.3,-727 240.3,-721 246.3,-715 252.3,-715 252.3,-715 353.85,-715 353.85,-715 359.85,-715 365.85,-721 365.85,-727 365.85,-727 365.85,-739 365.85,-739 365.85,-745 359.85,-751 353.85,-751"/>
<text xml:space="preserve" text-anchor="middle" x="303.08" y="-729.3" font-family="Helvetica,sans-Serif" font-size="11.00" fill="#334155">src/terse/lossy.py</text>
</g>
<!-- src/terse/lossy.py&#45;&gt;tests/test_drop.py -->
<g id="edge48" class="edge">
<title>src/terse/lossy.py&#45;&gt;tests/test_drop.py</title>
<path fill="none" stroke="#94a3b8" d="M366.24,-732.25C388.34,-731.99 407.85,-731.75 407.85,-731.75 407.85,-731.75 425.85,-731.75 425.85,-731.75 425.85,-731.75 447.63,-736.79 472.45,-742.54"/>
<polygon fill="#94a3b8" stroke="#94a3b8" points="471.72,-744.53 478.04,-743.84 472.66,-740.44 471.72,-744.53"/>
<text xml:space="preserve" text-anchor="middle" x="416.85" y="-735.7" font-family="Times,serif" font-size="14.00">2</text>
</g>
<!-- tests/test_dropeval.py -->
<g id="node27" class="node">
<title>tests/test_dropeval.py</title>
<path fill="#f8fafc" stroke="#cbd5e1" stroke-width="1.1" stroke-dasharray="5,2" d="M608.78,-716C608.78,-716 480.23,-716 480.23,-716 474.23,-716 468.23,-710 468.23,-704 468.23,-704 468.23,-692 468.23,-692 468.23,-686 474.23,-680 480.23,-680 480.23,-680 608.78,-680 608.78,-680 614.78,-680 620.78,-686 620.78,-692 620.78,-692 620.78,-704 620.78,-704 620.78,-710 614.78,-716 608.78,-716"/>
<text xml:space="preserve" text-anchor="middle" x="544.5" y="-694.3" font-family="Helvetica,sans-Serif" font-size="11.00" fill="#334155">tests/test_dropeval.py</text>
</g>
<!-- tests/test_dropeval.py&#45;&gt;src/terse/policy.py -->
<g id="edge54" class="edge">
<title>tests/test_dropeval.py&#45;&gt;src/terse/policy.py</title>
<path fill="none" stroke="#94a3b8" d="M621.21,-703.47C711.45,-709.98 850.2,-720 850.2,-720 850.2,-720 996.75,-720 996.75,-720 996.75,-720 1252.05,-668 1252.05,-668 1252.05,-668 1315.67,-609.03 1352.19,-575.18"/>
<polygon fill="#94a3b8" stroke="#94a3b8" points="1353.29,-577.03 1356.26,-571.41 1350.43,-573.95 1353.29,-577.03"/>
<text xml:space="preserve" text-anchor="middle" x="1028.25" y="-718.15" font-family="Times,serif" font-size="14.00">1</text>
</g>
<!-- tests/test_dropeval.py&#45;&gt;src/terse/proxy.py -->
<g id="edge53" class="edge">
<title>tests/test_dropeval.py&#45;&gt;src/terse/proxy.py</title>
<path fill="none" stroke="#94a3b8" d="M590.83,-679.5C613.49,-670.25 636.15,-661 636.15,-661 636.15,-661 663.15,-483.75 663.15,-483.75 663.15,-483.75 823.2,-399 823.2,-399 823.2,-399 875.63,-329.28 904.29,-291.18"/>
<polygon fill="#94a3b8" stroke="#94a3b8" points="905.83,-292.62 907.76,-286.56 902.48,-290.1 905.83,-292.62"/>
<text xml:space="preserve" text-anchor="middle" x="743.18" y="-487.7" font-family="Times,serif" font-size="14.00">2</text>
</g>
<!-- tests/test_dropeval.py&#45;&gt;src/terse/dropeval.py -->
<g id="edge57" class="edge">
<title>tests/test_dropeval.py&#45;&gt;src/terse/dropeval.py</title>
<path fill="none" stroke="#94a3b8" d="M599.54,-716.48C618.95,-723.12 636.15,-729 636.15,-729 636.15,-729 663.15,-1045 663.15,-1045 663.15,-1045 766.41,-1065.71 842.61,-1080.99"/>
<polygon fill="#94a3b8" stroke="#94a3b8" points="842.11,-1083.03 848.41,-1082.15 842.94,-1078.91 842.11,-1083.03"/>
<text xml:space="preserve" text-anchor="middle" x="743.18" y="-1079.61" font-family="Times,serif" font-size="14.00">4</text>
</g>
<!-- tests/test_policy.py -->
<g id="node28" class="node">
<title>tests/test_policy.py</title>
<path fill="#f8fafc" stroke="#cbd5e1" stroke-width="1.1" stroke-dasharray="5,2" d="M1193.55,-237C1193.55,-237 1082.25,-237 1082.25,-237 1076.25,-237 1070.25,-231 1070.25,-225 1070.25,-225 1070.25,-213 1070.25,-213 1070.25,-207 1076.25,-201 1082.25,-201 1082.25,-201 1193.55,-201 1193.55,-201 1199.55,-201 1205.55,-207 1205.55,-213 1205.55,-213 1205.55,-225 1205.55,-225 1205.55,-231 1199.55,-237 1193.55,-237"/>
<text xml:space="preserve" text-anchor="middle" x="1137.9" y="-215.3" font-family="Helvetica,sans-Serif" font-size="11.00" fill="#334155">tests/test_policy.py</text>
</g>
<!-- tests/test_policy.py&#45;&gt;src/terse/policy.py -->
<g id="edge56" class="edge">
<title>tests/test_policy.py&#45;&gt;src/terse/policy.py</title>
<path fill="none" stroke="#94a3b8" d="M1204.72,-237.47C1229.61,-244.45 1252.05,-250.75 1252.05,-250.75 1252.05,-250.75 1336.83,-454.82 1366.83,-527.04"/>
<polygon fill="#94a3b8" stroke="#94a3b8" points="1364.74,-527.48 1368.98,-532.21 1368.62,-525.86 1364.74,-527.48"/>
<text xml:space="preserve" text-anchor="middle" x="1247.55" y="-254.7" font-family="Times,serif" font-size="14.00">2</text>
</g>
<!-- tests/test_transport.py -->
<g id="node30" class="node">
<title>tests/test_transport.py</title>
<path fill="#f8fafc" stroke="#cbd5e1" stroke-width="1.1" stroke-dasharray="5,2" d="M368.85,-284C368.85,-284 237.3,-284 237.3,-284 231.3,-284 225.3,-278 225.3,-272 225.3,-272 225.3,-260 225.3,-260 225.3,-254 231.3,-248 237.3,-248 237.3,-248 368.85,-248 368.85,-248 374.85,-248 380.85,-254 380.85,-260 380.85,-260 380.85,-272 380.85,-272 380.85,-278 374.85,-284 368.85,-284"/>
<text xml:space="preserve" text-anchor="middle" x="303.08" y="-262.3" font-family="Helvetica,sans-Serif" font-size="11.00" fill="#334155">tests/test_transport.py</text>
</g>
<!-- tests/test_transport.py&#45;&gt;src/terse/transport.py -->
<g id="edge60" class="edge">
<title>tests/test_transport.py&#45;&gt;src/terse/transport.py</title>
<path fill="none" stroke="#94a3b8" d="M357.84,-284.43C390.46,-295.62 425.85,-307.75 425.85,-307.75 425.85,-307.75 455.36,-318.35 484.83,-328.93"/>
<polygon fill="#94a3b8" stroke="#94a3b8" points="484.12,-330.91 490.47,-330.96 485.54,-326.95 484.12,-330.91"/>
<text xml:space="preserve" text-anchor="middle" x="416.85" y="-311.7" font-family="Times,serif" font-size="14.00">2</text>
</g>
</g>
</svg>
